<mxfile host="app.diagrams.net" modified="2024-03-07T10:34:40.644Z" agent="Mozilla/5.0 (Windows NT 10.0; Win64; x64) AppleWebKit/537.36 (KHTML, like Gecko) Chrome/121.0.0.0 Safari/537.36" version="24.0.2" etag="b8O3hYqaTvZUt7Ccjesn" type="github">
  <diagram name="第 1 页" id="8FX4IJEMG2XytiSeozob">
    <mxGraphModel>
      <root>
        <mxCell id="0" />
        <mxCell id="1" parent="0" />
      </root>
    </mxGraphModel>
  </diagram>
</mxfile>
